<?xml version="1.0" encoding="UTF-8" standalone="no"?>
<!-- Created with Inkscape (http://www.inkscape.org/) -->

<svg
   xmlns:dc="http://purl.org/dc/elements/1.1/"
   xmlns:cc="http://creativecommons.org/ns#"
   xmlns:rdf="http://www.w3.org/1999/02/22-rdf-syntax-ns#"
   xmlns:svg="http://www.w3.org/2000/svg"
   xmlns="http://www.w3.org/2000/svg"
   xmlns:sodipodi="http://sodipodi.sourceforge.net/DTD/sodipodi-0.dtd"
   xmlns:inkscape="http://www.inkscape.org/namespaces/inkscape"
   version="1.1"
   id="svg4518"
   width="2666.6667"
   height="2666.6667"
   viewBox="0 0 2666.6667 2666.6667"
   sodipodi:docname="WORD.svg"
   inkscape:version="0.92.4 (5da689c313, 2019-01-14)">
  <metadata
     id="metadata4524">
    <rdf:RDF>
      <cc:Work
         rdf:about="">
        <dc:format>image/svg+xml</dc:format>
        <dc:type
           rdf:resource="http://purl.org/dc/dcmitype/StillImage" />
        <dc:title></dc:title>
      </cc:Work>
    </rdf:RDF>
  </metadata>
  <defs
     id="defs4522" />
  <sodipodi:namedview
     pagecolor="#ffffff"
     bordercolor="#666666"
     borderopacity="1"
     objecttolerance="10"
     gridtolerance="10"
     guidetolerance="10"
     inkscape:pageopacity="0"
     inkscape:pageshadow="2"
     inkscape:window-width="2442"
     inkscape:window-height="1522"
     id="namedview4520"
     showgrid="false"
     inkscape:zoom="4.28"
     inkscape:cx="0.49337198"
     inkscape:cy="2638.3274"
     inkscape:window-x="3525"
     inkscape:window-y="172"
     inkscape:window-maximized="0"
     inkscape:current-layer="svg4518" />
  <path
     style="fill:#fb0000;fill-opacity:1;stroke:#ff0000;stroke-width:1.13385832;stroke-miterlimit:4;stroke-dasharray:none;stroke-opacity:1"
     d="m 41.195014,83.080155 c -3.259392,-0.18797 -5.555234,-0.51291 -8.278709,-1.17171 -8.500665,-2.05628 -16.190622,-6.7314 -21.82492,-13.2685 -4.820197,-5.59256 -7.9653651,-12.17106 -9.2597161,-19.36783 -0.219919,-1.22278 -0.4099419,-2.72541 -0.5344839,-4.2265 -0.07796,-0.93963 -0.0785,-4.67111 -8.14e-4,-5.62081 0.3319609,-4.05818 1.0840369,-7.51314 2.428109,-11.15447 2.318476,-6.28117 6.256556,-11.98441 11.370811,-16.46754 6.590765,-5.7774396 14.734274,-9.3073706 23.572539,-10.2178946 1.632848,-0.168217 2.24353,-0.196198 4.291857,-0.196649 2.055409,-4.54e-4 2.63097,0.02604 4.313644,0.198545 8.886645,0.911055 17.134385,4.521719 23.768615,10.4053386 0.70008,0.62088 2.12107,2.01408 2.82672,2.77145 5.93698,6.37211 9.70798,14.62585 10.61036,23.22334 0.17731,1.68929 0.20101,2.19124 0.2006,4.24829 -4.2e-4,2.05759 -0.0266,2.61483 -0.19989,4.24828 -0.55258,5.20929 -2.14466,10.32284 -4.64425,14.9167 -4.84376,8.90207 -12.75164,15.66891 -22.40984,19.17629 -3.633344,1.31944 -7.206391,2.08117 -11.372335,2.42444 -0.749276,0.0617 -4.188966,0.11783 -4.858297,0.0792 z m 4.667847,-0.43054 c 6.918254,-0.51279 13.309105,-2.55606 19.122555,-6.11381 4.76707,-2.91738 9.01896,-6.9356 12.21135,-11.54025 4.15578,-5.99421 6.52368,-12.75125 7.07513,-20.18958 0.0747,-1.00812 0.075,-4.14383 4.9e-4,-5.14152 -0.37426,-5.00775 -1.5056,-9.49217 -3.50958,-13.91127 -4.32194,-9.53054 -12.33665,-17.1188896 -22.22607,-21.0437096 -4.11093,-1.63151 -8.26554,-2.571047 -12.788429,-2.892021 -1.253741,-0.08897 -4.104915,-0.101429 -5.272233,-0.02303 -5.872592,0.394407 -11.119456,1.787442 -16.187057,4.297641 C 12.661884,11.851485 4.529457,22.537325 2.2207009,35.089375 c -0.242125,1.31637 -0.430242,2.77824 -0.552286,4.29186 -0.102647,1.27305 -0.102601,4.42243 8.2e-5,5.70795 0.161452,2.02126 0.422276,3.81338 0.817802,5.6191 2.2350191,10.20368 8.3757621,19.14342 17.1859311,25.01939 2.358097,1.57274 5.031388,2.97104 7.771989,4.06523 4.355261,1.73887 9.195303,2.74937 14.077587,2.93912 0.793808,0.0309 3.50824,-0.0207 4.341055,-0.0824 z m -24.893985,-9.62289 c -0.03104,-0.0502 -0.04275,-0.96596 -0.05022,-3.92792 l -0.0065,-2.5694 -2.288802,-2.29152 -2.288802,-2.29152 0.02894,-0.71631 c 0.01592,-0.39398 0.0046,-4.38009 -0.02525,-8.85803 -0.05018,-7.53904 -0.0489,-8.14701 0.01742,-8.21335 0.06418,-0.0642 0.296036,-0.0729 2.232921,-0.0841 l 2.161308,-0.0125 -0.02817,-6.30549 c -0.01549,-3.46803 -0.03767,-6.8251 -0.04928,-7.46017 -0.01161,-0.63506 -0.03345,-3.53697 -0.04854,-6.44868 -0.01509,-2.91171 -0.04092,-7.20574 -0.0574,-9.5423 -0.02347,-3.32747 -0.01835,-4.26804 0.02362,-4.3394396 0.04808,-0.0818 0.108389,-0.0941 0.586805,-0.11982 0.293267,-0.0158 8.078559,-0.0287 17.30065,-0.0287 h 16.76743 l 0.0715,0.10914 c 0.0393,0.06 1.21133,1.2118996 2.60444,2.5596996 1.39311,1.3478 3.18012,3.07807 3.97112,3.84503 0.79101,0.76696 2.3302,2.25614 3.42042,3.30927 1.09022,1.05314 2.28123,2.20565 2.64669,2.56112 l 0.66448,0.64632 v 0.55429 c 0,0.30486 0.0195,3.35816 0.043,6.78511 0.0236,3.42695 0.0718,11.06407 0.10716,16.97136 0.0353,5.9073 0.0747,11.92679 0.0875,13.37665 0.0128,1.44987 0.0359,4.84796 0.0514,7.55133 0.0276,4.79926 0.0263,4.91568 -0.0543,4.93574 -0.14797,0.0369 -47.867058,0.041 -47.889821,0.004 z m 47.5524,-5.09483 c -0.0306,-4.98422 -0.0664,-10.66535 -0.20053,-31.8488 -0.0446,-7.03827 -0.0953,-12.81991 -0.11268,-12.84808 -0.0237,-0.0383 -0.33,-0.0445 -1.21322,-0.0245 -0.64986,0.0147 -3.3874,0.0369 -6.08343,0.0494 -2.69602,0.0125 -5.11921,0.0339 -5.38486,0.0477 l -0.48299,0.025 -0.029,-2.95216 c -0.0159,-1.62369 -0.029,-3.76754 -0.029,-4.76411 -3e-5,-0.99657 -0.013,-2.621 -0.0289,-3.60983 l -0.0288,-1.79788 -16.987829,0.002 c -15.432025,10e-4 -16.990244,0.008 -17.014212,0.0704 -0.01451,0.0378 -0.0038,3.69902 0.02379,8.13602 0.02759,4.43699 0.06001,9.88095 0.07205,12.09769 0.01203,2.21673 0.03153,4.7657 0.04334,5.66437 0.0118,0.89868 0.0244,2.94766 0.02799,4.5533 0.0036,1.60563 0.01538,3.01247 0.02619,3.1263 l 0.01966,0.20697 H 42.32844 63.518026 l 0.11281,0.13406 0.1128,0.13406 0.002,2.77438 c 0.001,1.52591 0.01,2.89203 0.0191,3.03581 0.0143,0.22435 0.0901,10.86709 0.0815,11.45093 -0.002,0.11512 -0.0221,0.22833 -0.0454,0.25159 -0.0272,0.0272 -7.62358,0.0417 -21.319917,0.0407 l -21.277635,-0.002 0.02882,1.95038 c 0.01585,1.0727 0.03291,3.17584 0.0379,4.67363 0.005,1.49779 0.01599,3.05168 0.02444,3.45309 l 0.01536,0.72984 h 23.620171 23.620171 l -0.0293,-4.76026 z m -47.623875,-2.81041 c -0.0157,-0.44934 -0.02861,-1.36108 -0.02868,-2.0261 l -1.3e-4,-1.20913 h -2.036823 -2.036823 l 2.025754,2.02611 c 1.114164,1.11435 2.043639,2.0261 2.065498,2.0261 0.02355,0 0.02811,-0.33296 0.01119,-0.81698 z m 42.546015,-8.1371 c -0.009,-2.49232 -0.0289,-6.33539 -0.0436,-8.54014 l -0.0266,-4.00864 -23.372255,-0.0108 -23.372255,-0.0108 0.02832,3.32227 c 0.01557,1.82725 0.03876,5.51832 0.05153,8.20236 0.01277,2.68405 0.03418,5.04158 0.04759,5.23897 l 0.02438,0.35888 23.339922,-0.0103 23.339918,-0.0103 z m 3.10139,-34.12301 c 0.83371,-0.0151 1.51016,-0.0433 1.50324,-0.0626 -0.0123,-0.0343 -0.56706,-0.57321 -5.8305,-5.66328 -1.40137,-1.3552 -3.5087,-3.39377 -4.68297,-4.53016 l -2.13504,-2.06616 -0.014,1.08796 c -0.008,0.59838 -4.2e-4,3.38962 0.0163,6.20276 l 0.0302,5.11479 4.79846,-0.0279 c 2.63915,-0.0154 5.48058,-0.0403 6.31428,-0.0554 z"
     id="path4546"
     inkscape:connector-curvature="0"
     sodipodi:nodetypes="sssssssssssccsccsccscsscccsssssssssccccscccsscscscssccscccscccssscsccccscssscssccscssscccccccccccscsssccccccccccssccsscccssccccsscccccccss" />
  <g
     inkscape:groupmode="layer"
     id="layer1"
     inkscape:label="Layer 1" />
  <text
     xml:space="preserve"
     style="font-style:normal;font-weight:normal;font-size:11.33387756px;line-height:1.25;font-family:sans-serif;letter-spacing:0px;word-spacing:0px;fill:#000000;fill-opacity:1;stroke:none;stroke-width:0.99999994"
     x="23.031042"
     y="57.442245"
     id="text4566"><tspan
       sodipodi:role="line"
       id="tspan4564"
       x="23.031042"
       y="57.442245"
       style="stroke-width:0.99999994">DOCX</tspan></text>
</svg>
