<svg id="Layer_1" data-name="Layer 1" xmlns="http://www.w3.org/2000/svg" viewBox="0 0 178.01 73.84"><defs><style>.cls-1{fill:#1c355e;}.cls-2{fill:none;stroke:#1c355e;stroke-miterlimit:10;stroke-width:0.6px;}.cls-3{fill:#aa2d29;}.cls-4{fill:#fff;}</style></defs><path class="cls-1" d="M86.26,96.53A3.56,3.56,0,1,1,89.82,100,3.41,3.41,0,0,1,86.26,96.53Zm6.4,0a2.85,2.85,0,1,0-2.84,2.81A2.75,2.75,0,0,0,92.66,96.53Z" transform="translate(-27.99 -27.5)"/><path class="cls-1" d="M101.65,93.14v6.78H101V94.5L98.3,99.06H98l-2.67-4.53v5.39H94.6V93.14h.6l2.94,5,2.92-5Z" transform="translate(-27.99 -27.5)"/><path class="cls-1" d="M107.92,98.11h-3.78l-.81,1.81h-.75l3.1-6.78h.71l3.1,6.78h-.75Zm-.26-.58L106,93.89l-1.62,3.64Z" transform="translate(-27.99 -27.5)"/><path class="cls-1" d="M116.29,93.14v6.78h-.71V96.79h-4.24v3.13h-.72V93.14h.72v3h4.24v-3Z" transform="translate(-27.99 -27.5)"/><path class="cls-1" d="M122.76,98.11H119l-.82,1.81h-.74l3.1-6.78h.7l3.1,6.78h-.75Zm-.27-.58-1.62-3.64-1.63,3.64Z" transform="translate(-27.99 -27.5)"/><path class="cls-1" d="M126.23,99.44a1.55,1.55,0,0,1-.14.56l-.4,1.34h-.47l.33-1.41a.49.49,0,0,1-.35-.49.52.52,0,1,1,1,0Z" transform="translate(-27.99 -27.5)"/><path class="cls-1" d="M136.05,93.14v6.78h-.6l-4.36-5.5v5.5h-.71V93.14H131l4.37,5.5v-5.5Z" transform="translate(-27.99 -27.5)"/><path class="cls-1" d="M142.28,99.3v.62h-4.8V93.14h4.66v.62H138.2v2.41h3.51v.61H138.2V99.3Z" transform="translate(-27.99 -27.5)"/><line class="cls-2" x1="53.8" y1="68.79" y2="68.79"/><line class="cls-2" x1="177.82" y1="68.79" x2="118.38" y2="68.79"/><path class="cls-1" d="M32,57v5h7v1.46H32V69H30.3V55.53h9.52V57Z" transform="translate(-27.99 -27.5)"/><path class="cls-1" d="M52.52,67.58V69H42.71V55.53h9.53V57H44.43v4.51h7v1.41h-7v4.7Z" transform="translate(-27.99 -27.5)"/><path class="cls-1" d="M66.41,55.53V69H65L56.51,58.49V69H54.79V55.53h1.43L64.7,66.06V55.53Z" transform="translate(-27.99 -27.5)"/><path class="cls-1" d="M68.16,62.26a6.9,6.9,0,0,1,7.21-6.9,6.67,6.67,0,0,1,5.13,2l-1.1,1.12a5.47,5.47,0,1,0-4,9.16,5.22,5.22,0,0,0,4-1.62l1.1,1.12a6.63,6.63,0,0,1-5.13,2A6.89,6.89,0,0,1,68.16,62.26Z" transform="translate(-27.99 -27.5)"/><path class="cls-1" d="M92.74,67.58V69H82.93V55.53h9.53V57H84.65v4.51h7v1.41h-7v4.7Z" transform="translate(-27.99 -27.5)"/><path class="cls-1" d="M103.72,62.26a6.91,6.91,0,0,1,7.21-6.9,6.64,6.64,0,0,1,5.13,2L115,58.49a5.47,5.47,0,1,0-4,9.16A5.2,5.2,0,0,0,115,66l1.1,1.12a6.62,6.62,0,0,1-5.13,2A6.9,6.9,0,0,1,103.72,62.26Z" transform="translate(-27.99 -27.5)"/><path class="cls-1" d="M117.26,62.26a7.24,7.24,0,1,1,7.23,6.9A6.91,6.91,0,0,1,117.26,62.26Zm12.74,0a5.51,5.51,0,1,0-5.51,5.4A5.31,5.31,0,0,0,130,62.28Z" transform="translate(-27.99 -27.5)"/><path class="cls-1" d="M146.69,69V58.63l-5.16,8.69h-.79l-5.15-8.54V69h-1.65V55.53h1.48l5.73,9.67,5.7-9.67h1.48l0,13.48Z" transform="translate(-27.99 -27.5)"/><path class="cls-1" d="M162.35,60.18c0,2.94-2.18,4.66-5.64,4.66h-3.53V69h-1.72V55.53h5.25C160.17,55.53,162.35,57.23,162.35,60.18Zm-1.72,0c0-2.07-1.41-3.22-4-3.22h-3.44v6.45h3.44C159.22,63.41,160.63,62.24,160.63,60.18Z" transform="translate(-27.99 -27.5)"/><path class="cls-1" d="M172.08,65.53h-7.56L162.94,69h-1.71l6.22-13.48h1.7L175.38,69h-1.72Zm-.62-1.38-3.15-7-3.17,7Z" transform="translate(-27.99 -27.5)"/><path class="cls-1" d="M189.1,55.53V69h-1.43L179.2,58.49V69h-1.72V55.53h1.43l8.47,10.53V55.53Z" transform="translate(-27.99 -27.5)"/><path class="cls-1" d="M198.13,64.62V69h-1.7V64.58l-5.58-9h1.84L197.32,63l4.62-7.45h1.77Z" transform="translate(-27.99 -27.5)"/><path class="cls-1" d="M34.85,44.93,33.8,47.64a5.28,5.28,0,0,0-.37,1.55c0,1.47,1.2,1.81,2.78,1.78v.62H29.26V51c1.64-.17,2.62-1.58,3.75-4.56l7.14-18.78h.32L48,47.47c1,2.57,1.86,3.5,3.09,3.5v.62H40.91V51c1.93,0,2.53-.27,2.53-1.17a2.32,2.32,0,0,0-.25-1.06L41.8,44.93Zm3.47-9.16-3,7.89h6Z" transform="translate(-27.99 -27.5)"/><path class="cls-1" d="M73.68,28h8.44v.62c-1.93-.1-2.84.52-2.84,2.85V47.85c0,2.78.76,3.15,2.84,3.12v.62h-11V51c2.55.1,3.09-.58,3.09-3.12v-18h-.06l-9,21.79h-.45L55.8,30h-.06V48.05c0,2,.91,2.92,3.06,2.92v.62h-7V51a2.71,2.71,0,0,0,2.87-3V31.79c0-2.34-.6-3.3-2.87-3.16V28h8.5L67,44.21Z" transform="translate(-27.99 -27.5)"/><path class="cls-1" d="M91,38.93h.75c2.28,0,3.51-1.17,4-5.39h.56v12h-.56c-.35-3.6-1.58-5.32-3.73-5.32H91v7.42c0,2.19.38,2.71,2.11,2.71h2c3.5,0,5.68-1.89,6.88-6h.57l-1,7.28H82.82V51c2.78.17,3.16-.86,3.16-3.12V31.58c0-2.16-.63-3.09-3.16-2.95V28h18.3v6.73h-.57c-.57-3.09-1.9-5.46-5.34-5.46H91Z" transform="translate(-27.99 -27.5)"/><path class="cls-1" d="M111.7,47.85c0,2.74.73,3.22,3.19,3.12v.62H103.62V51c2.46.1,3-.58,3-3.12V31.41c0-2.09-.7-2.92-3-2.78V28h11.59c4.55,0,7.43,2.82,7.43,6.52a5.91,5.91,0,0,1-4.74,5.87l4.29,7.65c1.14,2,2,2.85,2.94,2.92v.62h-6.41l-6-10.74h-1Zm0-8.27h1.68c3.16,0,4.14-2.54,4.14-5.15,0-3.19-1.36-5.15-4.46-5.15H111.7Z" transform="translate(-27.99 -27.5)"/><path class="cls-1" d="M137.08,51.59H126V51c2.34,0,3-.41,3-3.12V31.79c0-2.85-.82-3.19-3-3.16V28h11.12v.62c-2.21,0-3,.31-3,3.16V47.85c0,2.67.69,3.19,3,3.12Z" transform="translate(-27.99 -27.5)"/><path class="cls-1" d="M158.72,35.42h-.63A7,7,0,0,0,151.36,29,6.26,6.26,0,0,0,146,32.4a15.41,15.41,0,0,0-1.64,7.45c0,6.73,2.59,10.78,6.89,10.78,2.81,0,4.86-1.51,7-4.29v1.88a9.92,9.92,0,0,1-8.05,3.85c-7.11,0-11.51-5.32-11.51-11.88,0-6.93,5.12-12.69,11.28-12.69,3.54,0,5.15,1.68,6.58,1.68.79,0,1.32-.55,1.51-1.65h.63Z" transform="translate(-27.99 -27.5)"/><path class="cls-1" d="M165.71,44.93l-1,2.71a5.36,5.36,0,0,0-.38,1.55c0,1.47,1.2,1.81,2.78,1.78v.62h-6.95V51c1.64-.17,2.62-1.58,3.76-4.56L171,27.63h.32l7.48,19.84c1,2.57,1.87,3.5,3.1,3.5v.62H171.78V51c1.93,0,2.53-.27,2.53-1.17a2.36,2.36,0,0,0-.26-1.06l-1.39-3.81Zm3.48-9.16-3,7.89h6Z" transform="translate(-27.99 -27.5)"/><path class="cls-1" d="M202.18,43.32V31.72c0-1.92-.73-3.26-3.26-3.09V28H206v.62c-1.74,0-2.72,1.06-2.72,3.09V51.93h-.53l-16-19.63V48c0,2,.69,3,3.44,2.95v.62h-7.61V51c2,.1,3.06-.86,3.06-2.85V30.93l-.69-.82c-.89-1.07-1.52-1.45-2.37-1.48V28h7.2Z" transform="translate(-27.99 -27.5)"/><path class="cls-3" d="M96.52,79.13S140.45,69,149.88,76.3c3.82,3,9.73,2.26,11.09,2.07s17.35-2.69,19.71-2.83c3.46-.19,10.22-1.68,25.13,11.52H201s-10.85-8.48-18.69-8.23c-8.77,0-15.67,2.32-25,2-6.78-.34-7-3.38-14.37-4.75-13.29-2.46-42.77,6.53-42.76,6.6h0Z" transform="translate(-27.99 -27.5)"/><path class="cls-3" d="M101.6,84.23s28.47-8.28,40.91-6.91c2.58.38,4.74,1.53,7.53,3.25,7.67,5,25.14.33,30.65,0,3.54-.21,9.54.64,17.8,6.49-.24,0-6.2,0-6.2,0s-3.24-3.65-11.89-3c-9.74.75-15.91,1.59-19.78,1.47a23.17,23.17,0,0,1-14.17-4.15c-4.94-3.33-19.59-1.5-36,5.66h-5.55Z" transform="translate(-27.99 -27.5)"/><path class="cls-3" d="M117.57,87.06h36.81a31.05,31.05,0,0,1-4.7-1.47c-1.15-.47-2.13-.94-2.89-1.34s-1.55-.86-1.66-.93c-5.22-3.06-17.41.26-17.41.26A81.23,81.23,0,0,0,117.57,87.06Z" transform="translate(-27.99 -27.5)"/><path class="cls-1" d="M105.15,87.06l-7.44-8.2-2.86.38a3.73,3.73,0,0,1-3.18-1.42c-1.53-1.69-3-4.28-9.54-3.77C69.57,75,28,87.15,28,87.15Z" transform="translate(-27.99 -27.5)"/><path class="cls-4" d="M81.26,77.63l-.82-.35.84-.11,0-.87.6.78.82-.11-.5.53.54.71-.91-.33-.6.53Z" transform="translate(-27.99 -27.5)"/><path class="cls-4" d="M86.21,86.79l-.82-.34.84-.12,0-.86.6.78.83-.11-.51.52.54.71L86.8,87l-.6.53Z" transform="translate(-27.99 -27.5)"/><path class="cls-4" d="M98.69,86.79l-.82-.34.84-.12,0-.86.6.78.82-.11-.5.52.54.71L99.28,87l-.6.53Z" transform="translate(-27.99 -27.5)"/><path class="cls-4" d="M96.56,82.69l-.82-.35.84-.11,0-.87.59.79L98,82l-.5.53.53.71-.9-.33-.6.53Z" transform="translate(-27.99 -27.5)"/><path class="cls-4" d="M91.3,84.66l-.82-.35.84-.11,0-.87.6.79.83-.12-.51.53.54.71-.91-.33-.6.53Z" transform="translate(-27.99 -27.5)"/><path class="cls-4" d="M86.33,80.72l-.82-.35.84-.11,0-.87.59.79.83-.12-.5.53.53.71-.9-.33-.6.53Z" transform="translate(-27.99 -27.5)"/><path class="cls-4" d="M77.7,82l-.82-.34.84-.11,0-.87.6.78.82-.11-.5.53.54.71-.91-.33-.6.52Z" transform="translate(-27.99 -27.5)"/><path class="cls-4" d="M68.81,79.57,68,79.22l.84-.11,0-.87.6.79.82-.12-.5.53.54.71-.91-.33-.6.53Z" transform="translate(-27.99 -27.5)"/><path class="cls-4" d="M70.06,84.66l-.82-.35.84-.11,0-.87.6.79.83-.12-.51.53.54.71-.91-.33-.6.53Z" transform="translate(-27.99 -27.5)"/><path class="cls-4" d="M60.17,81l-.82-.34.84-.12,0-.87.59.79.83-.12-.5.53.54.71-.91-.33-.6.53Z" transform="translate(-27.99 -27.5)"/><path class="cls-4" d="M43.3,85l-.82-.34.84-.12,0-.86.6.78.82-.12-.5.53.54.71-.91-.33-.6.53Z" transform="translate(-27.99 -27.5)"/><path class="cls-4" d="M51.84,85,51,84.63l.84-.12,0-.86.6.78.82-.11-.5.52.54.71-.91-.33-.6.53Z" transform="translate(-27.99 -27.5)"/><path class="cls-4" d="M61.42,86.13l-.82-.34.84-.11,0-.87.6.78.82-.11-.5.53.54.71L62,86.39l-.6.52Z" transform="translate(-27.99 -27.5)"/></svg>