<svg id="Layer_1" data-name="Layer 1" xmlns="http://www.w3.org/2000/svg" viewBox="0 0 85.62 85.62"><defs><style>.cls-1{fill:none;stroke:#0071bc;stroke-linecap:round;stroke-linejoin:round;stroke-width:2px;}</style></defs><path class="cls-1" d="M25.88,56.32a25.32,25.32,0,0,0,35.81-35.8" transform="translate(-2.19 -2.54)"/><line class="cls-1" x1="56.83" y1="20.64" x2="62.59" y2="14.88"/><line class="cls-1" x1="20.59" y1="56.88" x2="26.51" y2="50.97"/><line class="cls-1" x1="41.59" y1="61.2" x2="41.59" y2="69.24"/><line class="cls-1" x1="32.8" y1="69.24" x2="50.39" y2="69.24"/><circle class="cls-1" cx="42.48" cy="36.75" r="17.38"/><path class="cls-1" d="M53.44,24.28s-.93,5-3.08,5.85-3.2-.78-4-1-4-2.86-4-1.06,1.48,3.46,1.48,5.52-1.88,3.06-.86,4.09,3.71-.22,3.71,1.74-4,2.91-6.48,2.91-2.14,1.86-3.25,1.86-2.44-.29-3.51.78-4.62-.33-3.14-2.47,5-4,5-5.53.51-5,2.89-6.2,1.26-8.11,1.26-8.11" transform="translate(-2.19 -2.54)"/><path class="cls-1" d="M59.62,48.16S56.25,45,55.81,43.33s-4-2.64-5.86.08,1.19,3.2,1.19,6S47.51,51.56,47.51,53s-.28,2.64-2.67,3.66" transform="translate(-2.19 -2.54)"/><path class="cls-1" d="M60.9,33.05s-5.17-.36-5.83,1.46S55.54,36.63,57,37s2.1-.07,2.53,1.51a7.52,7.52,0,0,0,2.42,3.1" transform="translate(-2.19 -2.54)"/><circle class="cls-1" cx="42.81" cy="42.81" r="41.81"/></svg>