<svg id="Layer_1" data-name="Layer 1" xmlns="http://www.w3.org/2000/svg" xmlns:xlink="http://www.w3.org/1999/xlink" viewBox="0 0 247.19 155.3"><defs><style>.cls-1{fill:none;}.cls-2{fill:#79221a;}.cls-3{fill:#142157;}.cls-4{fill:#d2232a;}.cls-5{fill:#fff;}.cls-6{clip-path:url(#clip-path);}</style><clipPath id="clip-path" transform="translate(-163.44 -140.15)"><rect class="cls-1" x="223.96" y="191.57" width="190.64" height="104.01"/></clipPath></defs><path class="cls-2" d="M208,188.16a50.64,50.64,0,0,1,64.48-12.27,47.88,47.88,0,1,0,3.5,85.86,50.64,50.64,0,0,1-68-73.59Z" transform="translate(-163.44 -140.15)"/><path class="cls-3" d="M192.94,156.88a77.68,77.68,0,0,1,100.59,3.64,73.43,73.43,0,1,0-24,129.57,77.66,77.66,0,0,1-76.54-133.21Z" transform="translate(-163.44 -140.15)"/><path class="cls-4" d="M185.58,196.08a63.07,63.07,0,0,1,72.13-38.48,59.64,59.64,0,1,0,36,100.81,63.08,63.08,0,0,1-108.1-62.33Z" transform="translate(-163.44 -140.15)"/><polygon class="cls-5" points="2.29 74.87 4.6 79.23 0.36 81.75 5.22 80.9 6.31 85.71 7 80.83 11.91 81.28 7.49 79.11 9.43 74.58 6 78.12 2.29 74.87"/><polygon class="cls-5" points="17.07 118.5 19.01 122.2 15.38 124.37 19.53 123.62 20.43 127.7 21.05 123.55 25.24 123.9 21.48 122.08 23.17 118.21 20.21 121.25 17.07 118.5"/><polygon class="cls-5" points="21.69 24.75 23.63 28.44 20 30.62 24.15 29.86 25.05 33.95 25.68 29.79 29.87 30.14 26.1 28.33 27.79 24.46 24.84 27.49 21.69 24.75"/><polygon class="cls-5" points="45.42 143.03 46.72 145.46 44.35 146.87 47.06 146.4 47.67 149.09 48.06 146.36 50.8 146.61 48.33 145.4 49.42 142.87 47.5 144.84 45.42 143.03"/><polygon class="cls-5" points="64.86 2.45 66.15 4.89 63.78 6.3 66.49 5.82 67.1 8.51 67.49 5.78 70.23 6.04 67.76 4.82 68.85 2.29 66.93 4.27 64.86 2.45"/><g class="cls-6"><path class="cls-4" d="M244.19,218.91l-2.26-5.76H230.55l-2.22,5.76h-3.9l10.17-25H238l10.17,25Zm-7.95-20.41-4.59,11.77h9.18Z" transform="translate(-163.44 -140.15)"/><path class="cls-4" d="M274.07,218.91V201.38l-9.22,8.89h-.36l-9.15-8.89v17.53h-3.65V193.76h.51l12.47,11.73,12.47-11.73h.54v25.15Z" transform="translate(-163.44 -140.15)"/><path class="cls-4" d="M283.8,218.91V194.34h17.57v3.1H287.45v6.41h13.92v2.92H287.45v9h13.92v3.1Z" transform="translate(-163.44 -140.15)"/><path class="cls-4" d="M322.22,218.91l-7.11-10.43h-4.59v10.43h-3.65V194.34h11.67c4.81,0,8.13,2.59,8.13,6.89,0,4.05-2.78,6.23-6.13,6.78l-1.53.18,7.66,10.72Zm-3.9-21.47h-7.8v8.09H318c2.73,0,4.92-1.2,4.92-4.23C322.91,199,321.2,197.44,318.32,197.44Z" transform="translate(-163.44 -140.15)"/><path class="cls-4" d="M331.51,218.91V194.34h3.64v24.57Z" transform="translate(-163.44 -140.15)"/><path class="cls-4" d="M353.23,219.57c-7.65,0-13.52-5.07-13.52-13.13s5.72-12.76,13.38-12.76a24.7,24.7,0,0,1,6.16.77l-.37,3.24a17.4,17.4,0,0,0-5.25-.76c-6.34,0-10.09,3.53-10.09,9.48s4.19,10,10.24,10a13.7,13.7,0,0,0,5-.88l.29,3.21A17.7,17.7,0,0,1,353.23,219.57Z" transform="translate(-163.44 -140.15)"/><path class="cls-4" d="M381.08,218.91l-2.26-5.76H367.44l-2.22,5.76h-3.9l10.17-25h3.35l10.17,25Zm-7.95-20.41-4.59,11.77h9.18Z" transform="translate(-163.44 -140.15)"/><path class="cls-4" d="M409.36,219.49h-.44l-16.69-17.24v16.66h-3.65V193.76h.51l16.66,17.31V194.34h3.61Z" transform="translate(-163.44 -140.15)"/><path class="cls-4" d="M228,232.26v7.18h-2.21V224.55h10.61v1.87H228v4.09h8.4v1.75Z" transform="translate(-163.44 -140.15)"/><path class="cls-4" d="M239.42,239.44V224.55h10.65v1.87h-8.44v3.89h8.44v1.77h-8.44v5.48h8.44v1.88Z" transform="translate(-163.44 -140.15)"/><path class="cls-4" d="M266,239.79h-.26l-10.12-10.45v10.1H253.4V224.19h.31l10.1,10.5V224.55H266Z" transform="translate(-163.44 -140.15)"/><path class="cls-4" d="M277,239.84c-4.64,0-8.2-3.08-8.2-8s3.47-7.73,8.11-7.73a14.83,14.83,0,0,1,3.73.46l-.22,2a10.49,10.49,0,0,0-3.18-.46c-3.84,0-6.12,2.14-6.12,5.74s2.54,6,6.21,6a8.24,8.24,0,0,0,3-.53l.17,1.95A11,11,0,0,1,277,239.84Z" transform="translate(-163.44 -140.15)"/><path class="cls-4" d="M283.42,239.44V224.55h10.65v1.87h-8.44v3.89h8.44v1.77h-8.44v5.48h8.44v1.88Z" transform="translate(-163.44 -140.15)"/><path class="cls-4" d="M310.85,239.84c-4.64,0-8.19-3.08-8.19-8s3.47-7.73,8.11-7.73a14.83,14.83,0,0,1,3.73.46l-.22,2a10.54,10.54,0,0,0-3.18-.46c-3.85,0-6.12,2.14-6.12,5.74s2.54,6,6.21,6a8.19,8.19,0,0,0,3-.53l.18,1.95A11,11,0,0,1,310.85,239.84Z" transform="translate(-163.44 -140.15)"/><path class="cls-4" d="M323.29,239.84c-4.75,0-7.45-3.76-7.45-7.85s2.66-7.84,7.43-7.84,7.42,3.69,7.42,7.84S328,239.84,323.29,239.84Zm0-13.86c-3.52,0-5.11,3-5.11,5.92s1.64,6.08,5.13,6.08,5.1-3,5.1-6.08S326.76,226,323.27,226Z" transform="translate(-163.44 -140.15)"/><path class="cls-4" d="M347.06,239.44V228.81l-5.59,5.39h-.22l-5.55-5.39v10.63h-2.21V224.19h.31l7.56,7.12,7.56-7.12h.33v15.25Z" transform="translate(-163.44 -140.15)"/><path class="cls-4" d="M359.76,234.2h-4.6v5.24H353V224.55h6.81c3.49,0,5.39,1.85,5.39,4.66S363.32,234.2,359.76,234.2Zm-.22-7.78h-4.38v5.9h4.44a3,3,0,0,0,3.27-3.09C362.87,227.49,361.7,226.42,359.54,226.42Z" transform="translate(-163.44 -140.15)"/><path class="cls-4" d="M376.59,239.44,375.22,236h-6.89L367,239.44h-2.37l6.17-15.14h2L379,239.44Zm-4.82-12.37L369,234.2h5.57Z" transform="translate(-163.44 -140.15)"/><path class="cls-4" d="M393.73,239.79h-.27l-10.11-10.45v10.1h-2.21V224.19h.31l10.09,10.5V224.55h2.19Z" transform="translate(-163.44 -140.15)"/><path class="cls-4" d="M400,239.44h-2.58l3.73-5.83-5.35-9.06h2.55l4.13,7,4.35-7h2.59Z" transform="translate(-163.44 -140.15)"/></g><path class="cls-3" d="M307.9,264.49c-4.43,0-6.94-3.5-6.94-7.31s2.47-7.32,6.92-7.32,6.92,3.44,6.92,7.32S312.31,264.49,307.9,264.49Zm0-12.92c-3.27,0-4.76,2.76-4.76,5.52s1.53,5.67,4.78,5.67,4.76-2.82,4.76-5.67S311.14,251.57,307.88,251.57Z" transform="translate(-163.44 -140.15)"/><path class="cls-3" d="M319.48,257.42v6.7h-2.06V250.24h9.89V252h-7.83v3.81h7.83v1.62Z" transform="translate(-163.44 -140.15)"/><path class="cls-3" d="M342,264.49c-4.43,0-6.94-3.5-6.94-7.31s2.47-7.32,6.92-7.32,6.92,3.44,6.92,7.32S346.37,264.49,342,264.49Zm0-12.92c-3.28,0-4.76,2.76-4.76,5.52s1.52,5.67,4.78,5.67,4.76-2.82,4.76-5.67S345.19,251.57,341.94,251.57Z" transform="translate(-163.44 -140.15)"/><path class="cls-3" d="M364.12,264.12v-9.91l-5.21,5h-.2l-5.17-5v9.91h-2.06V249.91h.28l7.05,6.63,7-6.63h.31v14.21Z" transform="translate(-163.44 -140.15)"/><path class="cls-3" d="M379.33,264.12l-1.28-3.26h-6.42l-1.26,3.26h-2.21L373.91,250h1.9l5.74,14.11Zm-4.49-11.54-2.6,6.66h5.19Z" transform="translate(-163.44 -140.15)"/><path class="cls-3" d="M393.19,264.12v-6.86h-7.56v6.86h-2.06V250.24h2.06v5.27h7.56v-5.27h2.06v13.88Z" transform="translate(-163.44 -140.15)"/><path class="cls-3" d="M408.4,264.12l-1.28-3.26h-6.43l-1.25,3.26h-2.21L403,250h1.9l5.74,14.11Zm-4.49-11.54-2.6,6.66h5.19Z" transform="translate(-163.44 -140.15)"/></svg>