<svg id="Layer_1" data-name="Layer 1" xmlns="http://www.w3.org/2000/svg" viewBox="0 0 85.62 85.62"><defs><style>.cls-1,.cls-3,.cls-4{fill:none;}.cls-1,.cls-2,.cls-3,.cls-4{stroke:#0071bc;stroke-linecap:round;stroke-linejoin:round;}.cls-1{stroke-width:2px;}.cls-2{fill:#fff;}.cls-2,.cls-3,.cls-4{stroke-width:1.5px;}.cls-4{stroke-dasharray:3 6;}</style></defs><circle class="cls-1" cx="42.81" cy="42.81" r="41.81"/><path class="cls-2" d="M38.52,64.36h-25v-5a10,10,0,0,1,10-10h5a10,10,0,0,1,10,10Z" transform="translate(-2.19 -2.54)"/><rect class="cls-3" x="18.83" y="54.32" width="10" height="7.5"/><path class="cls-2" d="M21,49.26a10.4,10.4,0,0,0-2.5,1V64.36H21Z" transform="translate(-2.19 -2.54)"/><path class="cls-2" d="M33.52,50.24a10.4,10.4,0,0,0-2.5-1v15.1h2.5Z" transform="translate(-2.19 -2.54)"/><rect class="cls-2" x="15.71" y="56.82" width="3.75" height="1.25"/><rect class="cls-2" x="28.21" y="56.82" width="3.75" height="1.25"/><path class="cls-2" d="M23.52,44.36v5h0c.12.5,1.17.9,2.47.9s2.36-.4,2.48-.9h0v-5Z" transform="translate(-2.19 -2.54)"/><path class="cls-2" d="M26,34.36a5,5,0,0,0-5,5v2.5a5,5,0,0,0,10,0v-2.5A5,5,0,0,0,26,34.36Z" transform="translate(-2.19 -2.54)"/><line class="cls-2" x1="17.03" y1="36.82" x2="30.63" y2="36.82"/><path class="cls-2" d="M27.75,32.37l-.48-.1v-.41a.39.39,0,0,0-.4-.4h-1.7a.39.39,0,0,0-.4.4v.41l-.48.1a5,5,0,0,0-3.62,4.54q-.06.56-.15,1.11a2.56,2.56,0,0,1-.7,1.34h12.4A2.48,2.48,0,0,1,31.53,38c-.07-.37-.11-.74-.15-1.11A5,5,0,0,0,27.75,32.37Z" transform="translate(-2.19 -2.54)"/><path class="cls-3" d="M24.77,36.46v-4.6a.39.39,0,0,1,.4-.4h1.7a.39.39,0,0,1,.4.4v4.6" transform="translate(-2.19 -2.54)"/><path class="cls-3" d="M23.17,34.84a4.34,4.34,0,0,0-.91,2.25" transform="translate(-2.19 -2.54)"/><path class="cls-2" d="M76,64.36H51v-5a10,10,0,0,1,10-10h5a10,10,0,0,1,10,10Z" transform="translate(-2.19 -2.54)"/><rect class="cls-3" x="56.33" y="54.32" width="10" height="7.5"/><path class="cls-2" d="M58.52,49.26a10.4,10.4,0,0,0-2.5,1V64.36h2.5Z" transform="translate(-2.19 -2.54)"/><path class="cls-2" d="M71,50.24a10.4,10.4,0,0,0-2.5-1v15.1H71Z" transform="translate(-2.19 -2.54)"/><rect class="cls-2" x="53.21" y="56.82" width="3.75" height="1.25"/><rect class="cls-2" x="65.71" y="56.82" width="3.75" height="1.25"/><path class="cls-2" d="M61,44.36v5h0c.12.5,1.17.9,2.47.9s2.36-.4,2.48-.9h0v-5Z" transform="translate(-2.19 -2.54)"/><path class="cls-2" d="M63.52,34.36a5,5,0,0,0-5,5v2.5a5,5,0,1,0,10,0v-2.5A5,5,0,0,0,63.52,34.36Z" transform="translate(-2.19 -2.54)"/><line class="cls-2" x1="54.53" y1="36.82" x2="68.13" y2="36.82"/><path class="cls-2" d="M65.25,32.37l-.48-.1v-.41a.39.39,0,0,0-.4-.4h-1.7a.39.39,0,0,0-.4.4v.41l-.48.1a5,5,0,0,0-3.62,4.54q-.06.56-.15,1.11a2.56,2.56,0,0,1-.7,1.34h12.4A2.48,2.48,0,0,1,69,38c-.07-.37-.11-.74-.15-1.11A5,5,0,0,0,65.25,32.37Z" transform="translate(-2.19 -2.54)"/><path class="cls-3" d="M62.27,36.46v-4.6a.39.39,0,0,1,.4-.4h1.7a.39.39,0,0,1,.4.4v4.6" transform="translate(-2.19 -2.54)"/><path class="cls-3" d="M60.67,34.84a4.34,4.34,0,0,0-.91,2.25" transform="translate(-2.19 -2.54)"/><rect class="cls-3" x="39.46" y="38.51" width="6.25" height="6.25"/><path class="cls-2" d="M44.77,28.55a6.25,6.25,0,0,0-6.25,6.25v3.12a6.25,6.25,0,0,0,12.5,0V34.8A6.25,6.25,0,0,0,44.77,28.55Z" transform="translate(-2.19 -2.54)"/><path class="cls-2" d="M60.4,66.05H29.15V59.8a12.5,12.5,0,0,1,12.5-12.5H47.9A12.5,12.5,0,0,1,60.4,59.8Z" transform="translate(-2.19 -2.54)"/><rect class="cls-3" x="36.33" y="54.14" width="12.5" height="9.37"/><line class="cls-2" x1="34.08" y1="32.26" x2="51.08" y2="32.26"/><path class="cls-2" d="M46.94,26.07a6,6,0,0,0-.61-.12v-.53a.5.5,0,0,0-.5-.5H43.71a.5.5,0,0,0-.5.5V26a5.79,5.79,0,0,0-.6.12c-2.7.67-4.22,3-4.53,5.68,0,.46-.11.92-.19,1.38A3,3,0,0,1,37,34.8h15.5a3.18,3.18,0,0,1-.87-1.67c-.08-.46-.13-.92-.19-1.38A6.19,6.19,0,0,0,46.94,26.07Z" transform="translate(-2.19 -2.54)"/><path class="cls-3" d="M43.21,31.17V25.42a.5.5,0,0,1,.5-.5h2.12a.5.5,0,0,1,.5.5v5.75" transform="translate(-2.19 -2.54)"/><path class="cls-2" d="M38.52,47.18A13.4,13.4,0,0,0,35.4,48.4V66.05h3.12Z" transform="translate(-2.19 -2.54)"/><path class="cls-2" d="M54.15,48.4A13.48,13.48,0,0,0,51,47.18V66.05h3.13Z" transform="translate(-2.19 -2.54)"/><rect class="cls-2" x="32.43" y="57.26" width="4.69" height="1.56"/><rect class="cls-2" x="48.05" y="57.26" width="4.69" height="1.56"/><polygon class="cls-2" points="48.83 45.02 47.33 43 42.58 44.76 45.63 47.81 48.83 45.02"/><polygon class="cls-2" points="42.58 44.76 37.83 43 36.33 45.02 39.54 47.81 42.58 44.76"/><rect class="cls-2" x="26.46" y="60.39" width="6.75" height="3.12"/><rect class="cls-2" x="51.96" y="60.39" width="6.75" height="3.12"/><path class="cls-3" d="M41.21,29.16A5.28,5.28,0,0,0,40.07,32" transform="translate(-2.19 -2.54)"/><line class="cls-3" x1="42.58" y1="44.76" x2="42.58" y2="54.08"/><line class="cls-4" x1="34.83" y1="57.26" x2="34.83" y2="45.65"/><line class="cls-4" x1="50.33" y1="57.26" x2="50.33" y2="45.65"/><line class="cls-3" x1="42.58" y1="11.46" x2="42.58" y2="7.18"/><line class="cls-3" x1="36.16" y1="13.18" x2="35.08" y2="11.33"/><line class="cls-3" x1="31.45" y1="17.89" x2="27.74" y2="15.75"/><line class="cls-3" x1="29.73" y1="24.32" x2="27.58" y2="24.32"/><line class="cls-3" x1="55.44" y1="24.32" x2="57.58" y2="24.32"/><line class="cls-3" x1="53.72" y1="17.89" x2="57.43" y2="15.75"/><line class="cls-3" x1="49.01" y1="13.18" x2="50.08" y2="11.33"/></svg>